<?xml version="1.0" standalone="no"?><!DOCTYPE svg PUBLIC "-//W3C//DTD SVG 1.1//EN" "http://www.w3.org/Graphics/SVG/1.1/DTD/svg11.dtd"><svg class="icon" width="200px" height="200.00px" viewBox="0 0 1024 1024" version="1.1" xmlns="http://www.w3.org/2000/svg"><path fill="#ffffff" d="M1023.136 360.736c0-170.464-133.696-309.088-297.952-309.088-80.992 0-157.888 41.312-213.28 100.896-55.424-59.616-132.288-100.896-213.312-100.896-164.192 0-297.728 138.656-297.728 309.088 0 5.6 0.416 10.752 0.864 14.944-0.096 1.408-0.096 2.784-0.096 4.16 0 30.144 7.296 63.296 21.76 98.528 0.384 1.312 0.768 2.592 1.376 3.808 90.72 217.696 440.128 468.128 454.976 479.648 9.184 7.072 20.192 10.56 31.264 10.56 11.136 0 22.272-3.552 31.552-10.944 12.608-9.888 310.656-224.32 429.056-427.328 4.448-7.008 7.744-13.44 10.752-19.328 0.992-1.792 1.76-3.552 2.752-5.376l0.384-0.8c0.384-0.672 0.8-1.376 1.184-2.048 7.2-13.856 12.736-26.56 17.248-39.136 12.32-32.128 18.368-60.8 18.368-87.584 0-2.08-0.064-3.904-0.192-5.472C1022.496 371.008 1023.136 366.336 1023.136 360.736z" /></svg>